<svg width="511" height="359" viewBox="0 0 511 359" fill="none" xmlns="http://www.w3.org/2000/svg">
<path d="M74.2357 29.243C91.3418 8.87877 110.892 2.76982 135.329 0.73321C159.766 -1.3034 148.362 12.5443 183.389 17.4318C218.415 22.3192 227.376 23.9486 229.412 38.6109C231.036 50.3058 310.997 182.53 335.025 240.343L361.304 86.9897C391.285 50.2229 396.203 17.4318 435.319 24.2181C493.406 34.2958 511.207 57.0093 510.27 106.664C509.333 156.32 498.09 267.81 471.857 286.547C445.625 305.285 438.129 325.897 398.78 306.222C366.844 290.254 352.126 286.854 341.728 261.756C341.946 264.376 341.511 266.105 340.319 266.793C324.019 276.197 270.197 310.037 232.107 297.451C183.258 281.309 175.538 304.346 145.447 297.451C115.355 290.555 93.9463 286.227 79.5276 279.958C65.1089 273.689 17.4643 101.918 30.0024 77.4689C40.0328 57.9095 63.6706 37.1685 74.2357 29.243Z" fill="#477454"/>
<path d="M147.507 281.328C151.11 310.632 151.47 309.731 160.716 320.726L121.167 321.914C127.713 302.911 130.517 268.881 131.118 254.836L133.62 196.414C133.804 192.137 134.23 180.631 133.998 171.281C133.765 161.852 134.112 152.323 134.439 144.684C134.671 139.255 145.569 137.102 145.589 145.162C145.611 154.515 145.771 157.43 146.096 169.487C146.36 179.251 146.365 186.008 146.657 190.606C148.84 187.597 150.672 185.787 153.486 181.838C155.705 178.725 157.77 175.687 167.227 168.702C172.246 164.994 175.8 171.888 171.51 174.637C167.219 177.385 160.176 185.474 155.32 192.889C152.66 196.95 148.795 199.955 147.92 209.075C146.583 222.996 143.904 252.024 147.507 281.328Z" fill="#1D201F"/>
<path d="M201.057 279.002C204.66 308.306 205.02 307.404 214.265 318.4L174.717 319.588C181.263 300.585 184.066 266.555 184.668 252.509L187.17 194.088C187.353 189.811 187.779 178.305 187.548 168.955C187.315 159.526 187.661 149.997 187.989 142.358C188.221 136.928 199.119 134.776 199.138 142.836C199.161 152.189 199.321 155.104 199.646 167.161C199.909 176.925 199.915 183.681 200.206 188.28C202.389 185.271 204.222 183.461 207.036 179.512C209.255 176.399 211.32 173.36 220.777 166.376C225.796 162.668 229.35 169.562 225.06 172.311C220.769 175.059 213.726 183.148 208.87 190.563C206.21 194.624 202.345 197.629 201.469 206.749C200.133 220.67 197.454 249.698 201.057 279.002Z" fill="#1D201F"/>
<path d="M257.638 240.224C252.536 281.5 254.515 311.028 245.24 356.941C255.134 361.115 281.402 357.347 281.402 350.668C281.402 342.321 278.044 317.21 278.044 295.413C278.044 273.616 279.899 191.065 278.044 157.209C276.189 123.354 264.131 140.05 261.812 150.253C259.493 160.456 262.739 198.949 257.638 240.224Z" fill="#1D201F"/>
<path d="M417.846 221.88C412.745 263.156 414.724 292.684 405.448 338.598C415.342 342.771 441.61 339.003 441.61 332.325C441.61 323.977 438.252 298.866 438.252 277.069C438.252 255.272 440.107 172.721 438.252 138.865C436.397 105.01 424.339 121.706 422.02 131.909C419.702 142.112 422.948 180.605 417.846 221.88Z" fill="#1D201F"/>
<path d="M336.945 279.024C283.627 266.837 287.061 266.16 232.259 289.781C200.877 303.308 152.974 261.953 127.48 279.024C103.539 295.057 148.394 242.167 139.736 181.027C131.079 119.886 46.4937 2.41509 104.622 34.5991C152.162 60.9209 154.126 29.9127 203.904 8.81112C253.682 -12.2905 288.662 11.4885 328.82 8.81134C366.905 6.27247 374.108 287.519 336.945 279.024Z" fill="#5A8B68"/>
<path d="M197.63 184.814C191.679 232.969 197.63 287.617 186.809 341.183C198.352 346.052 221.437 353.844 221.437 346.052V249.201C221.437 223.771 223.602 127.461 221.437 87.9635C219.273 48.4656 205.205 67.9441 202.5 79.8475C199.795 91.751 203.582 136.66 197.63 184.814Z" fill="#1D201F"/>
<path d="M51.5035 290.187C66.4954 294.698 89.1264 291.235 89.1264 291.235C89.1264 291.235 135.496 296.319 136.73 252.004C137.954 208.068 208.284 166.089 154.459 102.68C141.13 86.9791 125.882 63.2427 118.034 51.2955C98.3376 21.3112 64.1228 -5.79081 22.8456 51.0098C7.47386 72.1625 0.335332 163.763 0.00224984 189.107C-0.330832 214.451 36.4081 285.645 51.5035 290.187Z" fill="#5A8B68"/>
<path d="M92.0699 232.183C90.6069 271.2 109.429 277.432 104.147 318.533C90.6322 322.178 63.5287 320.078 65.2359 315.628C67.3699 310.065 71.5805 294.913 74.1803 281.237C76.7801 267.561 75.7308 231.931 75.8962 215.268C76.0617 198.605 72.3532 181.513 61.6287 174.74C50.9043 167.967 37.6178 160.8 55.0362 159.868C72.4545 158.936 74.0967 164.597 73.8679 146.829C73.6392 129.062 73.513 112.821 83.4786 115.871C87.7028 117.163 85.0296 126.96 87.5411 144.917C88.9685 155.123 93.4653 148.51 102.145 145.299C108.294 143.025 116.959 142.971 112.18 154.383C102.732 176.942 93.0524 205.979 92.0699 232.183Z" fill="#1D201F"/>
<path d="M287.643 246.692C324.195 285.44 349.31 279.599 349.31 279.599C349.31 279.599 386.287 283.103 415.311 246.692C454.928 196.991 409.263 202.707 427.138 137.706C444.916 73.0576 430.19 61.0796 386.997 25.9474L386.287 25.3694C342.545 -10.2114 303.168 14.4276 280.389 35.4544C257.61 56.4812 239.72 115.464 265.181 148.433C290.643 181.403 256.079 213.232 287.643 246.692Z" fill="#5A8B68"/>
<path d="M344.167 272.176C339.65 308.909 339.199 307.779 327.61 321.562L377.184 323.05C368.978 299.231 365.464 256.574 364.71 238.968L361.574 165.737C361.344 160.375 360.81 145.953 361.1 134.233C361.393 122.414 360.958 110.469 360.548 100.894C360.256 94.088 346.596 91.3901 346.571 101.493C346.543 113.217 346.343 116.871 345.935 131.984C345.605 144.224 345.598 151.304 345.233 157.069C342.496 153.296 339.792 149.941 336.018 145.772C332.803 142.22 331.168 139.934 319.448 131C311.994 125.317 306.056 135.83 312.556 140.278C317.827 143.885 327.884 154.109 333.971 163.403C337.306 168.494 343.069 179.33 344.167 190.762C345.842 208.212 348.683 235.444 344.167 272.176Z" fill="#1D201F"/>
</svg>
