<svg width="643" height="379" viewBox="0 0 643 379" fill="none" xmlns="http://www.w3.org/2000/svg">
<path d="M429.285 356.692C502.698 362.27 502.698 305.203 502.698 305.203L543.576 300.111C543.576 300.111 579.165 332.947 611.226 333.752C623.487 334.06 634.73 327.954 642.126 328.126L637.173 46.37C637.173 46.37 617.68 20.0185 589.284 25.9875C560.599 32.0172 546.824 39.511 532.67 72.1398L411.301 62.0729C383.796 9.17901 324.555 7.59215 292.819 29.2786C261.083 50.9651 230.404 52.0229 215.594 78.9988C200.784 105.975 191.263 295.335 211.891 324.955C232.52 354.576 256.851 336.592 301.282 329.716C345.713 322.84 356.624 351.171 429.285 356.692Z" fill="#477454"/>
<path d="M2.43163 144.587C6.73276 97.3427 45.7887 52.7693 97.6406 52.0232C156.296 51.1792 185.444 112.322 193.907 167.332C204.486 236.094 195.069 248.788 170.738 290.046C151.273 323.051 97.6406 317.551 97.6406 317.551C97.6406 317.551 65.3143 312.708 39.2597 290.046C6.47314 261.528 -5.67837 233.67 2.43163 144.587Z" fill="#477454"/>
<path d="M444.374 277.961C442.931 330.4 451.39 361.951 455.8 371.172L415.509 378.989C424.529 362.151 422.124 313.441 424.529 277.961C426.934 242.481 426.934 210.007 430.543 169.716C434.151 129.425 449.786 137.242 449.786 163.702C449.786 190.162 446.178 212.413 444.374 277.961Z" fill="#1D201F"/>
<path d="M102.653 270.926C101.389 316.859 108.798 344.496 112.661 352.572L77.369 359.42C85.2702 344.671 83.1632 302.004 85.2702 270.926C87.3772 239.849 87.3772 211.404 90.5377 176.112C93.6982 140.819 107.394 147.667 107.394 170.844C107.394 194.021 104.233 213.511 102.653 270.926Z" fill="#1D201F"/>
<path d="M277.266 311.974C272.749 348.706 272.298 347.576 260.709 361.359L310.283 362.847C302.077 339.028 298.563 296.371 297.809 278.765L294.673 205.535C294.443 200.173 293.909 185.75 294.199 174.03C294.492 162.211 294.057 150.267 293.647 140.692C293.355 133.885 279.695 131.188 279.67 141.29C279.642 153.015 279.442 156.669 279.034 171.781C278.704 184.021 278.698 192.49 278.332 198.254C275.595 194.482 273.298 192.213 269.771 187.264C266.99 183.362 264.401 179.553 252.547 170.797C246.256 166.15 241.801 174.792 247.179 178.237C252.557 181.682 261.385 191.821 267.472 201.116C270.807 206.207 275.651 209.973 276.749 221.405C278.424 238.855 281.782 275.242 277.266 311.974Z" fill="#1D201F"/>
<path d="M125.271 278.552C127.518 305.373 142.328 331.775 162.938 328.961C163.127 326.89 194.837 327.547 205.569 325.027C243.968 316.01 248.494 275.63 246.535 253.619C243.444 218.894 269.885 193.462 264.92 172.321C260.411 153.122 249.558 117.687 252.536 85.0806C255.514 52.4746 226.58 43.5695 182.815 59.9249C106.646 88.3896 101.04 166.746 104.981 192.156C108.923 217.565 123.024 251.731 125.271 278.552Z" fill="#5A8B68"/>
<path d="M178.173 282.364C178.039 316.69 169.305 336.607 153.676 364.037L215.391 366.644C207.973 355.407 202.263 334.879 200.888 305.171C199.512 275.463 192.335 249.081 199.189 220.831C205.56 194.571 203.329 185.113 194.924 197.243C189.542 205.01 183.498 218.608 173.322 210.375C163.146 202.143 137.148 194.802 151 209.432C164.851 224.062 178.308 248.038 178.173 282.364Z" fill="#1D201F"/>
<path d="M325.906 279.38C331.477 310.947 346.783 321.717 375.926 327.91C405.069 334.102 413.722 329.953 426.178 325.801C470.743 310.947 471.738 262.565 467.03 236.672C459.602 195.82 488.207 162.793 480.028 138.257C472.6 115.974 455.889 75.122 455.889 36.1273C455.889 -2.86731 420.607 -10.2947 370.472 13.8446C283.215 55.8566 285.055 149.397 292.482 179.108C299.91 208.818 320.336 247.813 325.906 279.38Z" fill="#5A8B68"/>
<path d="M436.802 321.389C462.598 315.875 448.916 339.832 497.962 344.667C497.962 344.667 504.239 323.306 517.228 321.389C561.671 314.832 569.122 292.331 573.636 261.093C581.173 208.927 568.419 176.845 568.419 137.85C568.419 98.8553 577.663 65.2501 517.228 35.0326C487.267 20.0522 458.763 46.2533 455.408 27.9496C449.887 -2.17315 405.455 328.09 436.802 321.389Z" fill="#5A8B68"/>
<path d="M374.313 271.734C372.837 308.419 365.438 343.314 349.034 363.635L415.85 371.719C402.759 354.407 397.961 294.866 399.743 250.577C400.302 236.699 400.503 221.452 400.596 206.01C403.568 198.789 408.64 192.952 412.868 190.641C419.098 187.237 440.2 179.956 450.362 162.087C460.524 144.219 442.284 142.644 436.625 154.602C431.99 164.393 410.153 174.105 400.696 178.906C400.776 154.389 400.949 131.136 402.242 113.997C404.812 79.931 378.787 86.0769 377.105 112.986C375.423 139.894 375.758 235.824 374.313 271.734Z" fill="#1D201F"/>
<path d="M500.135 270.283C501.579 322.722 493.119 354.273 488.709 363.494L529.001 371.311C519.98 354.473 522.386 305.763 519.98 270.283C517.575 234.804 517.575 202.329 513.967 162.038C510.358 121.747 494.723 129.565 494.723 156.024C494.723 182.484 498.331 204.735 500.135 270.283Z" fill="#1D201F"/>
</svg>
