<?xml version="1.0" encoding="UTF-8" standalone="no"?>
<!-- Created with Inkscape (http://www.inkscape.org/) -->

<svg
   version="1.1"
   id="svg2"
   width="802.25336"
   height="142.88"
   viewBox="0 0 802.25336 142.88"
   sodipodi:docname="hrb_horizontal_green_dark-green_spot.eps"
   xmlns:inkscape="http://www.inkscape.org/namespaces/inkscape"
   xmlns:sodipodi="http://sodipodi.sourceforge.net/DTD/sodipodi-0.dtd"
   xmlns="http://www.w3.org/2000/svg"
   xmlns:svg="http://www.w3.org/2000/svg">
  <defs
     id="defs6" />
  <sodipodi:namedview
     id="namedview4"
     pagecolor="#ffffff"
     bordercolor="#000000"
     borderopacity="0.25"
     inkscape:showpageshadow="2"
     inkscape:pageopacity="0.0"
     inkscape:pagecheckerboard="0"
     inkscape:deskcolor="#d1d1d1" />
  <g
     id="g8"
     inkscape:groupmode="layer"
     inkscape:label="ink_ext_XXXXXX"
     transform="matrix(1.3333333,0,0,-1.3333333,0,142.88)">
    <g
       id="g10"
       transform="scale(0.1)">
      <path
         d="M 1071.56,0 H 0 V 1071.58 H 1071.56 V 0"
         style="fill:#22a945;fill-opacity:1;fill-rule:nonzero;stroke:none"
         id="path12" />
      <path
         d="m 5927.07,786.414 c 0,23.566 17.32,43.566 44.92,43.566 27.55,0 44.87,-20 44.87,-43.566 0,-23.66 -17.32,-43.484 -44.87,-43.484 -27.6,0 -44.92,19.824 -44.92,43.484 m 80.08,0 c 0,20.02 -12.9,35.266 -35.16,35.266 -22.18,0 -35.01,-15.246 -35.01,-35.266 0,-19.734 12.83,-35.262 35.01,-35.262 22.26,0 35.16,15.528 35.16,35.262 m -35.6,-7.09 h -2.52 V 768.863 H 5957 v 37.778 h 17.33 c 9.9,0 14.96,-5.278 14.96,-13.75 0,-4.907 -2.19,-8.84 -5.66,-11.282 l 7.23,-12.746 h -13.93 z m 1.19,9.278 c 2.97,0 4.59,1.75 4.59,4.289 0,2.312 -1.62,3.933 -4.59,3.933 h -3.71 v -8.222 z M 5415.18,278.406 h 169.17 v 225.137 h 13.39 l 111.64,-225.137 h 201.22 l -157.71,296.883 141.69,243.828 H 5704.86 L 5594.97,630.914 h -10.62 v 188.203 h -169.17 z m -336.49,129.715 c -57.96,0 -85.63,37.895 -85.63,97.387 v 86.375 c 0,59.504 27.67,97.383 85.63,97.383 59.45,0 81.08,-40.868 84.17,-80.442 h 159.9 c -3.75,122.207 -88.71,221.125 -240.93,221.125 -174.56,0 -257.91,-98.918 -257.91,-245.801 v -71.003 c 0,-146.68 83.35,-245.579 257.91,-245.579 152.22,0 237.18,98.899 240.93,220.743 h -159.9 c -3.09,-39.422 -24.72,-80.188 -84.17,-80.188 m -829.48,106.567 v 67.964 c 0,146.782 88.94,247.297 258.01,247.297 169.25,0 258.1,-100.515 258.1,-247.297 v -67.964 c 0,-146.887 -88.85,-247.122 -258.1,-247.122 -169.07,0 -258.01,100.235 -258.01,247.122 m 347,-9.985 v 87.981 c 0,62.636 -31.69,96.582 -88.99,96.582 -57.11,0 -88.85,-33.946 -88.85,-96.582 v -87.981 c 0,-62.5 31.74,-96.582 88.85,-96.582 57.3,0 88.99,34.082 88.99,96.582 M 3816.5,278.406 h 388.45 V 418.809 H 3985.52 V 819.117 H 3816.5 Z m -543.85,540.711 h 280.41 c 101.22,0 160.63,-58.672 160.63,-139.762 0,-54.816 -26.31,-99.718 -70.88,-121.308 64.74,-14.594 104.11,-58.598 104.11,-125.981 0,-91.207 -66.38,-153.66 -189.96,-153.66 h -284.31 z m 239.37,-211.023 c 26.68,0 40.92,19.347 40.92,45.183 0,23.301 -15.94,41.664 -40.92,41.664 h -78.38 v -86.847 z m 33.54,-205.535 c 26.86,0 42.49,19.949 42.49,46.011 0,24.106 -16.51,44.739 -43.41,44.739 h -112.35 v -90.75 z M 1373.44,278.453 h 169.31 v 193.813 h 138.99 V 278.453 H 1850.9 V 819.09 H 1681.74 V 626.777 H 1542.75 V 819.09 h -169.31 z m 1354.04,141.992 h -48.76 V 278.453 H 2509.61 V 819.09 h 270.34 c 137.5,0 212.36,-81.824 212.36,-199.871 0,-77.461 -34.69,-136.828 -92.64,-170.117 L 3006.91,278.453 H 2810.1 Z m 33.17,133.801 c 40.27,0 62.5,26.961 62.5,64.152 0,40.211 -21.43,65.489 -62.5,65.489 h -81.93 V 554.246 Z M 2366.84,392.535 c 18.69,32.746 21.43,72.754 21.43,103.813 v 84.324 h -119.6 V 501.59 l -125.51,140.371 c -12.15,15.012 -20.02,26.57 -20.02,44.414 0,20.734 15.41,34.746 38.49,34.746 24.89,0 38.17,-15.5 38.17,-37.187 v -26.067 h 128.87 v 33.957 c 0,85.656 -70.99,138.145 -170.05,138.145 -107.31,0 -176.26,-56.367 -176.26,-141.485 0,-23.933 7.82,-61.125 43.93,-94.453 -47.99,-22.492 -97.93,-70.625 -97.93,-147.879 0,-107.406 84.37,-178.566 233.27,-178.566 51.11,0 99.35,14.148 133.14,36.777 l 23.88,-25.859 h 150.54 z m -208.5,-13.765 c -36.73,0 -87.6,21.25 -87.6,71.238 0,29.297 19.1,50.676 36.78,62.734 0,0 88.33,-99.226 106.96,-119.304 -8.87,-6.196 -31.78,-14.668 -56.14,-14.668"
         style="fill:#1a301b;fill-opacity:1;fill-rule:nonzero;stroke:none"
         id="path14" />
    </g>
  </g>
</svg>
